<svg width="18" height="18" viewBox="0 0 18 18" fill="none" xmlns="http://www.w3.org/2000/svg">
<path fill-rule="evenodd" clip-rule="evenodd" d="M3.69571 0.802734C2.7158 0.802734 1.77599 1.19191 1.08295 1.88468C0.389915 2.57745 0.000378785 3.5171 0 4.49702L0 14.3056C-3.62817e-08 14.7909 0.0956028 15.2714 0.281347 15.7197C0.467092 16.168 0.739339 16.5753 1.08254 16.9183C1.42573 17.2614 1.83316 17.5335 2.28153 17.7191C2.72991 17.9046 3.21045 18.0001 3.69571 17.9999H13.5029C14.4828 17.9995 15.4224 17.61 16.1152 16.9169C16.808 16.2239 17.1971 15.2841 17.1971 14.3042V8.69988C17.1971 8.46308 17.1031 8.23597 16.9356 8.06853C16.7682 7.90109 16.5411 7.80702 16.3043 7.80702C16.0675 7.80702 15.8404 7.90109 15.6729 8.06853C15.5055 8.23597 15.4114 8.46308 15.4114 8.69988V14.3042C15.4114 14.8105 15.2104 15.2961 14.8525 15.6542C14.4946 16.0124 14.0092 16.2138 13.5029 16.2142H3.69571C3.44484 16.2144 3.19638 16.1651 2.96457 16.0692C2.73275 15.9732 2.52212 15.8326 2.34472 15.6552C2.16732 15.4778 2.02664 15.2671 1.93072 15.0353C1.8348 14.8035 1.78553 14.555 1.78571 14.3042V4.49702C1.78609 3.9907 1.98749 3.50525 2.34565 3.14737C2.7038 2.78948 3.1894 2.58845 3.69571 2.58845H9.3C9.5368 2.58845 9.7639 2.49438 9.93135 2.32694C10.0988 2.15949 10.1929 1.93239 10.1929 1.69559C10.1929 1.45879 10.0988 1.23169 9.93135 1.06425C9.7639 0.896803 9.5368 0.802734 9.3 0.802734H3.69571Z" fill="#5C6B3C"/>
</svg>
