<svg width="24" height="24" viewBox="0 0 24 24" fill="none" xmlns="http://www.w3.org/2000/svg">
<path d="M5.53847 10.45L6.07479 10.404C6.06243 10.2661 5.99742 10.1383 5.89326 10.0471C5.78911 9.95582 5.65381 9.90822 5.51547 9.91413C5.37713 9.92005 5.24639 9.97902 5.1504 10.0788C5.05441 10.1786 5.00054 10.3115 5 10.45H5.53847ZM17.9133 11.7588L17.4064 14.6881L18.4683 14.8719L18.9745 11.9426L17.9133 11.7588ZM12.894 18.3591H9.5562V19.436H12.894V18.3591ZM8.90214 17.7582L8.31915 11.0143L7.24579 11.1069L7.8295 17.8508L8.90214 17.7582ZM17.4064 14.6881C17.0424 16.7918 15.1456 18.3591 12.894 18.3591V19.436C15.641 19.436 18.0102 17.5198 18.4683 14.8719L17.4064 14.6881ZM12.9012 6.76396L12.4252 9.66813L13.4878 9.84188L13.9638 6.93843L12.9012 6.76396ZM8.54531 10.4586L9.57846 9.56834L8.87486 8.75273L7.84314 9.643L8.54531 10.4586ZM11.4574 6.67207L11.7991 5.35532L10.7566 5.08536L10.4149 6.40139L11.4574 6.67207ZM12.3146 5.09685L12.4187 5.13059L12.7483 4.10534L12.6442 4.0716L12.3146 5.09685ZM10.9397 7.99599C11.1639 7.57663 11.3376 7.13224 11.4574 6.67207L10.4149 6.40139C10.316 6.77925 10.1733 7.14429 9.98986 7.48911L10.9397 7.99599ZM12.4187 5.13059C12.521 5.16194 12.6138 5.21846 12.6886 5.29498C12.7633 5.3715 12.8177 5.46557 12.8466 5.56855L13.8891 5.2986C13.8152 5.01952 13.6719 4.76372 13.4724 4.55505C13.2729 4.34639 13.0238 4.19167 12.7483 4.10534L12.4187 5.13059ZM11.7991 5.35532C11.8137 5.30371 11.8391 5.25583 11.8738 5.21495C11.9085 5.17406 11.9516 5.14113 12.0002 5.11839L11.5328 4.14842C11.1508 4.33222 10.8636 4.67253 10.7566 5.08536L11.7991 5.35532ZM12.0002 5.11839C12.0985 5.07174 12.2108 5.06404 12.3146 5.09685L12.6442 4.0716C12.2775 3.95437 11.8798 3.98186 11.5328 4.14842L12.0002 5.11839ZM13.5467 10.9885H17.2657V9.91152H13.5467V10.9885ZM6.77266 18.4711L6.07479 10.404L5.00215 10.4967L5.69858 18.5637L6.77266 18.4711ZM6.07695 18.5479V10.45H5V18.5479H6.07695ZM5.69858 18.5637C5.69639 18.5376 5.70037 18.5114 5.70887 18.4866C5.71737 18.4618 5.73094 18.4391 5.74869 18.4199C5.76645 18.4006 5.78802 18.3853 5.81202 18.3748C5.83602 18.3644 5.86194 18.359 5.88812 18.3591V19.436C6.40937 19.436 6.81717 18.9895 6.77266 18.4711L5.69858 18.5637ZM13.9638 6.93843C14.054 6.39262 14.0286 5.83394 13.8891 5.2986L12.8466 5.56927C12.9485 5.95926 12.9671 6.36632 12.9012 6.76396L13.9638 6.93843ZM9.5562 18.3591C9.3918 18.3588 9.23346 18.297 9.1124 18.1857C8.99133 18.0745 8.91632 17.922 8.90214 17.7582L7.8295 17.8508C7.86686 18.2831 8.06491 18.6857 8.38456 18.9792C8.70422 19.2727 9.12226 19.4357 9.5562 19.436V18.3591ZM9.57846 9.56834C10.0667 9.14761 10.5922 8.64719 10.9404 7.99599L9.98986 7.48911C9.74144 7.95507 9.34584 8.3478 8.87486 8.75273L9.57846 9.56834ZM18.9745 11.9426C19.0177 11.6935 19.0059 11.4379 18.94 11.1938C18.874 10.9497 18.7555 10.7229 18.5928 10.5294C18.43 10.3359 18.2268 10.1804 17.9976 10.0736C17.7684 9.9669 17.5186 9.91157 17.2657 9.91152V10.9885C17.6728 10.9885 17.9837 11.3561 17.9133 11.7588L18.9745 11.9426ZM5.88812 18.3591C5.99295 18.3591 6.07695 18.4438 6.07695 18.5479H5C5 19.0376 5.39703 19.436 5.88812 19.436V18.3591ZM12.4252 9.66813C12.3984 9.83081 12.4074 9.99736 12.4514 10.1562C12.4954 10.3151 12.5735 10.4625 12.6802 10.5882C12.7869 10.7139 12.9197 10.8148 13.0693 10.8841C13.2189 10.9533 13.3818 10.9885 13.5467 10.9885V9.91152C13.5379 9.91156 13.5292 9.91039 13.5213 9.9067C13.5133 9.90301 13.5063 9.89761 13.5007 9.89089C13.4951 9.88417 13.491 9.8763 13.4888 9.86783C13.4865 9.85935 13.4862 9.8505 13.4878 9.84188L12.4252 9.66813ZM8.31915 11.0143C8.31039 10.9104 8.32567 10.8058 8.3651 10.7092C8.40454 10.6126 8.46629 10.5267 8.54531 10.4586L7.84171 9.64229C7.6336 9.82187 7.47107 10.0483 7.36748 10.3029C7.26389 10.5575 7.22218 10.8331 7.24579 11.1069L8.31915 11.0143Z" fill="#333333"/>
</svg>
